<svg height="512pt" viewBox="0 -46 512 512" width="512pt" xmlns="http://www.w3.org/2000/svg"><path d="m240.984375 0h30.003906v60.011719h-30.003906zm0 0"/><path d="m143.367188 25.96875 27.617187-11.722656 23.445313 55.242187-27.617188 11.722657zm0 0"/><path d="m63.65625 88.011719 20.84375-21.578125 43.167969 41.6875-20.84375 21.582031zm0 0"/><path d="m14.53125 176.265625 10.753906-28.007813 56.027344 21.507813-10.753906 28.007813zm0 0"/><path d="m317.53125 69.480469 23.445312-55.238281 27.617188 11.722656-23.445312 55.238281zm0 0"/><path d="m384.296875 108.089844 43.164063-41.6875 20.84375 21.582031-43.167969 41.6875zm0 0"/><path d="m430.683594 169.742188 56.027344-21.507813 10.753906 28.011719-56.027344 21.507812zm0 0"/><path d="m285.589844 260.671875c38.148437-13.9375 86.738281-26.070313 135.660156-34.433594-12.703125-80.210937-82.117188-140.71875-165.261719-140.71875-42.125 0-82.371093 15.683594-113.328125 44.160157-26.269531 24.164062-43.917968 55.726562-50.792968 90.273437 54.441406 7.351563 110.886718 18.761719 170.464843 34.429687 7.699219 2.023438 15.449219 4.121094 23.257813 6.289063zm0 0"/><path d="m512 336.886719v-91.433594c-55.117188 3.605469-120.917969 15.15625-174.957031 30.292969 53.570312 16.488281 110.828125 36.511718 174.957031 61.140625zm0 0"/><path d="m0 241.335938v177.664062h512v-49.960938c-150.421875-58.332031-327.402344-117.75-512-127.703124zm0 0"/></svg>