<?xml version="1.0" encoding="iso-8859-1"?>
<!-- Generator: Adobe Illustrator 19.0.0, SVG Export Plug-In . SVG Version: 6.00 Build 0)  -->
<svg version="1.1" id="Capa_1" xmlns="http://www.w3.org/2000/svg" xmlns:xlink="http://www.w3.org/1999/xlink" x="0px" y="0px"
	 viewBox="0 0 512 512" style="enable-background:new 0 0 512 512;" xml:space="preserve">
<g>
	<g>
		<path d="M493.462,451.99l-21.219-61.01h8.796c8.29,0,15-6.71,15-15.002v-30.005c0-57.901-47.117-105.017-105.017-105.017h-30.388
			c-10.824-14.295-26.432-24.778-44.624-28.487v-34.172c17.711-5.469,31.81-19.921,35.602-38.828l9.707-50.538H240.697l9.707,50.538
			c3.791,18.907,17.891,33.359,35.602,38.828v34.172c-18.193,3.709-33.802,14.191-44.624,28.487h-45.39v90.015h45.39
			c13.707,18.107,35.219,30.005,59.627,30.005s45.919-11.898,59.627-30.005h30.388c8.277,0,15.002,6.725,15.002,15.002v30.005
			c0,8.292,6.71,15.002,15.003,15.002h8.792l-21.216,60.981c-1.714,4.82-2.578,9.875-2.578,15.031
			c0,24.818,20.189,45.007,45.007,45.007s45.007-20.189,45.007-45.007C496.04,461.836,495.176,456.781,493.462,451.99z"/>
	</g>
</g>
<g>
	<g>
		<path d="M135.98,210.951h-32.759c-6.199-17.44-22.685-30.005-42.253-30.005H30.963c-8.285,0-15.002,6.715-15.002,15.002v210.034
			c0,8.285,6.717,15.003,15.002,15.003h30.005c24.857,0,45.007-20.15,45.007-45.007v-15.003h30.005
			c16.572,0,30.005-13.435,30.005-30.005v-90.015C165.985,224.384,152.552,210.951,135.98,210.951z"/>
	</g>
</g>
<g>
	<g>
		<path d="M350.644,22.416c-24.467-29.888-74.807-29.888-99.274,0c-8.623,10.512-13.349,23.282-14.207,36.51h127.689
			C363.992,45.698,359.268,32.928,350.644,22.416z"/>
	</g>
</g>
<g>
</g>
<g>
</g>
<g>
</g>
<g>
</g>
<g>
</g>
<g>
</g>
<g>
</g>
<g>
</g>
<g>
</g>
<g>
</g>
<g>
</g>
<g>
</g>
<g>
</g>
<g>
</g>
<g>
</g>
</svg>
